%TF.GenerationSoftware,KiCad,Pcbnew,5.1.8*%
%TF.CreationDate,2020-12-08T01:30:07+01:00*%
%TF.ProjectId,dht_esp_shield,6468745f-6573-4705-9f73-6869656c642e,rev?*%
%TF.SameCoordinates,Original*%
%TF.FileFunction,Legend,Top*%
%TF.FilePolarity,Positive*%
%FSLAX46Y46*%
G04 Gerber Fmt 4.6, Leading zero omitted, Abs format (unit mm)*
G04 Created by KiCad (PCBNEW 5.1.8) date 2020-12-08 01:30:07*
%MOMM*%
%LPD*%
G01*
G04 APERTURE LIST*
%ADD10C,0.300000*%
%ADD11C,0.150000*%
%ADD12C,0.120000*%
G04 APERTURE END LIST*
D10*
X126432571Y-77794571D02*
X127504000Y-77794571D01*
X127718285Y-77866000D01*
X127861142Y-78008857D01*
X127932571Y-78223142D01*
X127932571Y-78366000D01*
X127932571Y-76366000D02*
X127932571Y-77080285D01*
X126432571Y-77080285D01*
X127789714Y-75008857D02*
X127861142Y-75080285D01*
X127932571Y-75294571D01*
X127932571Y-75437428D01*
X127861142Y-75651714D01*
X127718285Y-75794571D01*
X127575428Y-75866000D01*
X127289714Y-75937428D01*
X127075428Y-75937428D01*
X126789714Y-75866000D01*
X126646857Y-75794571D01*
X126504000Y-75651714D01*
X126432571Y-75437428D01*
X126432571Y-75294571D01*
X126504000Y-75080285D01*
X126575428Y-75008857D01*
X126432571Y-73937428D02*
X127504000Y-73937428D01*
X127718285Y-74008857D01*
X127861142Y-74151714D01*
X127932571Y-74366000D01*
X127932571Y-74508857D01*
X127932571Y-72508857D02*
X127932571Y-73223142D01*
X126432571Y-73223142D01*
X127789714Y-71151714D02*
X127861142Y-71223142D01*
X127932571Y-71437428D01*
X127932571Y-71580285D01*
X127861142Y-71794571D01*
X127718285Y-71937428D01*
X127575428Y-72008857D01*
X127289714Y-72080285D01*
X127075428Y-72080285D01*
X126789714Y-72008857D01*
X126646857Y-71937428D01*
X126504000Y-71794571D01*
X126432571Y-71580285D01*
X126432571Y-71437428D01*
X126504000Y-71223142D01*
X126575428Y-71151714D01*
X126432571Y-70080285D02*
X127504000Y-70080285D01*
X127718285Y-70151714D01*
X127861142Y-70294571D01*
X127932571Y-70508857D01*
X127932571Y-70651714D01*
X127932571Y-68651714D02*
X127932571Y-69366000D01*
X126432571Y-69366000D01*
X127789714Y-67294571D02*
X127861142Y-67366000D01*
X127932571Y-67580285D01*
X127932571Y-67723142D01*
X127861142Y-67937428D01*
X127718285Y-68080285D01*
X127575428Y-68151714D01*
X127289714Y-68223142D01*
X127075428Y-68223142D01*
X126789714Y-68151714D01*
X126646857Y-68080285D01*
X126504000Y-67937428D01*
X126432571Y-67723142D01*
X126432571Y-67580285D01*
X126504000Y-67366000D01*
X126575428Y-67294571D01*
X126432571Y-66223142D02*
X127504000Y-66223142D01*
X127718285Y-66294571D01*
X127861142Y-66437428D01*
X127932571Y-66651714D01*
X127932571Y-66794571D01*
X127932571Y-64794571D02*
X127932571Y-65508857D01*
X126432571Y-65508857D01*
X127789714Y-63437428D02*
X127861142Y-63508857D01*
X127932571Y-63723142D01*
X127932571Y-63866000D01*
X127861142Y-64080285D01*
X127718285Y-64223142D01*
X127575428Y-64294571D01*
X127289714Y-64366000D01*
X127075428Y-64366000D01*
X126789714Y-64294571D01*
X126646857Y-64223142D01*
X126504000Y-64080285D01*
X126432571Y-63866000D01*
X126432571Y-63723142D01*
X126504000Y-63508857D01*
X126575428Y-63437428D01*
X101477857Y-79965428D02*
X101477857Y-79465428D01*
X102263571Y-79251142D02*
X102263571Y-79965428D01*
X100763571Y-79965428D01*
X100763571Y-79251142D01*
X102192142Y-78679714D02*
X102263571Y-78465428D01*
X102263571Y-78108285D01*
X102192142Y-77965428D01*
X102120714Y-77894000D01*
X101977857Y-77822571D01*
X101835000Y-77822571D01*
X101692142Y-77894000D01*
X101620714Y-77965428D01*
X101549285Y-78108285D01*
X101477857Y-78394000D01*
X101406428Y-78536857D01*
X101335000Y-78608285D01*
X101192142Y-78679714D01*
X101049285Y-78679714D01*
X100906428Y-78608285D01*
X100835000Y-78536857D01*
X100763571Y-78394000D01*
X100763571Y-78036857D01*
X100835000Y-77822571D01*
X102263571Y-77179714D02*
X100763571Y-77179714D01*
X100763571Y-76608285D01*
X100835000Y-76465428D01*
X100906428Y-76394000D01*
X101049285Y-76322571D01*
X101263571Y-76322571D01*
X101406428Y-76394000D01*
X101477857Y-76465428D01*
X101549285Y-76608285D01*
X101549285Y-77179714D01*
X101406428Y-75465428D02*
X101335000Y-75608285D01*
X101263571Y-75679714D01*
X101120714Y-75751142D01*
X101049285Y-75751142D01*
X100906428Y-75679714D01*
X100835000Y-75608285D01*
X100763571Y-75465428D01*
X100763571Y-75179714D01*
X100835000Y-75036857D01*
X100906428Y-74965428D01*
X101049285Y-74894000D01*
X101120714Y-74894000D01*
X101263571Y-74965428D01*
X101335000Y-75036857D01*
X101406428Y-75179714D01*
X101406428Y-75465428D01*
X101477857Y-75608285D01*
X101549285Y-75679714D01*
X101692142Y-75751142D01*
X101977857Y-75751142D01*
X102120714Y-75679714D01*
X102192142Y-75608285D01*
X102263571Y-75465428D01*
X102263571Y-75179714D01*
X102192142Y-75036857D01*
X102120714Y-74965428D01*
X101977857Y-74894000D01*
X101692142Y-74894000D01*
X101549285Y-74965428D01*
X101477857Y-75036857D01*
X101406428Y-75179714D01*
X100906428Y-74322571D02*
X100835000Y-74251142D01*
X100763571Y-74108285D01*
X100763571Y-73751142D01*
X100835000Y-73608285D01*
X100906428Y-73536857D01*
X101049285Y-73465428D01*
X101192142Y-73465428D01*
X101406428Y-73536857D01*
X102263571Y-74394000D01*
X102263571Y-73465428D01*
X100763571Y-72179714D02*
X100763571Y-72465428D01*
X100835000Y-72608285D01*
X100906428Y-72679714D01*
X101120714Y-72822571D01*
X101406428Y-72894000D01*
X101977857Y-72894000D01*
X102120714Y-72822571D01*
X102192142Y-72751142D01*
X102263571Y-72608285D01*
X102263571Y-72322571D01*
X102192142Y-72179714D01*
X102120714Y-72108285D01*
X101977857Y-72036857D01*
X101620714Y-72036857D01*
X101477857Y-72108285D01*
X101406428Y-72179714D01*
X101335000Y-72322571D01*
X101335000Y-72608285D01*
X101406428Y-72751142D01*
X101477857Y-72822571D01*
X101620714Y-72894000D01*
X100763571Y-70751142D02*
X100763571Y-71036857D01*
X100835000Y-71179714D01*
X100906428Y-71251142D01*
X101120714Y-71394000D01*
X101406428Y-71465428D01*
X101977857Y-71465428D01*
X102120714Y-71394000D01*
X102192142Y-71322571D01*
X102263571Y-71179714D01*
X102263571Y-70894000D01*
X102192142Y-70751142D01*
X102120714Y-70679714D01*
X101977857Y-70608285D01*
X101620714Y-70608285D01*
X101477857Y-70679714D01*
X101406428Y-70751142D01*
X101335000Y-70894000D01*
X101335000Y-71179714D01*
X101406428Y-71322571D01*
X101477857Y-71394000D01*
X101620714Y-71465428D01*
X102263571Y-68822571D02*
X100763571Y-68822571D01*
X100763571Y-68465428D01*
X100835000Y-68251142D01*
X100977857Y-68108285D01*
X101120714Y-68036857D01*
X101406428Y-67965428D01*
X101620714Y-67965428D01*
X101906428Y-68036857D01*
X102049285Y-68108285D01*
X102192142Y-68251142D01*
X102263571Y-68465428D01*
X102263571Y-68822571D01*
X102263571Y-67322571D02*
X100763571Y-67322571D01*
X101477857Y-67322571D02*
X101477857Y-66465428D01*
X102263571Y-66465428D02*
X100763571Y-66465428D01*
X100763571Y-65965428D02*
X100763571Y-65108285D01*
X102263571Y-65536857D02*
X100763571Y-65536857D01*
X104742142Y-78644000D02*
X104813571Y-78501142D01*
X104813571Y-78215428D01*
X104742142Y-78072571D01*
X104599285Y-78001142D01*
X104527857Y-78001142D01*
X104385000Y-78072571D01*
X104313571Y-78215428D01*
X104313571Y-78429714D01*
X104242142Y-78572571D01*
X104099285Y-78644000D01*
X104027857Y-78644000D01*
X103885000Y-78572571D01*
X103813571Y-78429714D01*
X103813571Y-78215428D01*
X103885000Y-78072571D01*
X104813571Y-77358285D02*
X103313571Y-77358285D01*
X104813571Y-76715428D02*
X104027857Y-76715428D01*
X103885000Y-76786857D01*
X103813571Y-76929714D01*
X103813571Y-77144000D01*
X103885000Y-77286857D01*
X103956428Y-77358285D01*
X104813571Y-76001142D02*
X103813571Y-76001142D01*
X103313571Y-76001142D02*
X103385000Y-76072571D01*
X103456428Y-76001142D01*
X103385000Y-75929714D01*
X103313571Y-76001142D01*
X103456428Y-76001142D01*
X104742142Y-74715428D02*
X104813571Y-74858285D01*
X104813571Y-75144000D01*
X104742142Y-75286857D01*
X104599285Y-75358285D01*
X104027857Y-75358285D01*
X103885000Y-75286857D01*
X103813571Y-75144000D01*
X103813571Y-74858285D01*
X103885000Y-74715428D01*
X104027857Y-74644000D01*
X104170714Y-74644000D01*
X104313571Y-75358285D01*
X104813571Y-73786857D02*
X104742142Y-73929714D01*
X104599285Y-74001142D01*
X103313571Y-74001142D01*
X104813571Y-72572571D02*
X103313571Y-72572571D01*
X104742142Y-72572571D02*
X104813571Y-72715428D01*
X104813571Y-73001142D01*
X104742142Y-73144000D01*
X104670714Y-73215428D01*
X104527857Y-73286857D01*
X104099285Y-73286857D01*
X103956428Y-73215428D01*
X103885000Y-73144000D01*
X103813571Y-73001142D01*
X103813571Y-72715428D01*
X103885000Y-72572571D01*
X103813571Y-70858285D02*
X104813571Y-70501142D01*
X103813571Y-70144000D01*
X104813571Y-68786857D02*
X104813571Y-69644000D01*
X104813571Y-69215428D02*
X103313571Y-69215428D01*
X103527857Y-69358285D01*
X103670714Y-69501142D01*
X103742142Y-69644000D01*
X104670714Y-68144000D02*
X104742142Y-68072571D01*
X104813571Y-68144000D01*
X104742142Y-68215428D01*
X104670714Y-68144000D01*
X104813571Y-68144000D01*
X103313571Y-67144000D02*
X103313571Y-67001142D01*
X103385000Y-66858285D01*
X103456428Y-66786857D01*
X103599285Y-66715428D01*
X103885000Y-66644000D01*
X104242142Y-66644000D01*
X104527857Y-66715428D01*
X104670714Y-66786857D01*
X104742142Y-66858285D01*
X104813571Y-67001142D01*
X104813571Y-67144000D01*
X104742142Y-67286857D01*
X104670714Y-67358285D01*
X104527857Y-67429714D01*
X104242142Y-67501142D01*
X103885000Y-67501142D01*
X103599285Y-67429714D01*
X103456428Y-67358285D01*
X103385000Y-67286857D01*
X103313571Y-67144000D01*
X109842142Y-78108285D02*
X109913571Y-77894000D01*
X109913571Y-77536857D01*
X109842142Y-77394000D01*
X109770714Y-77322571D01*
X109627857Y-77251142D01*
X109485000Y-77251142D01*
X109342142Y-77322571D01*
X109270714Y-77394000D01*
X109199285Y-77536857D01*
X109127857Y-77822571D01*
X109056428Y-77965428D01*
X108985000Y-78036857D01*
X108842142Y-78108285D01*
X108699285Y-78108285D01*
X108556428Y-78036857D01*
X108485000Y-77965428D01*
X108413571Y-77822571D01*
X108413571Y-77465428D01*
X108485000Y-77251142D01*
X109913571Y-76608285D02*
X108413571Y-76608285D01*
X108413571Y-76036857D01*
X108485000Y-75894000D01*
X108556428Y-75822571D01*
X108699285Y-75751142D01*
X108913571Y-75751142D01*
X109056428Y-75822571D01*
X109127857Y-75894000D01*
X109199285Y-76036857D01*
X109199285Y-76608285D01*
X109913571Y-75108285D02*
X108413571Y-75108285D01*
X109485000Y-74608285D01*
X108413571Y-74108285D01*
X109913571Y-74108285D01*
X108556428Y-72322571D02*
X108485000Y-72251142D01*
X108413571Y-72108285D01*
X108413571Y-71751142D01*
X108485000Y-71608285D01*
X108556428Y-71536857D01*
X108699285Y-71465428D01*
X108842142Y-71465428D01*
X109056428Y-71536857D01*
X109913571Y-72394000D01*
X109913571Y-71465428D01*
X108413571Y-70536857D02*
X108413571Y-70394000D01*
X108485000Y-70251142D01*
X108556428Y-70179714D01*
X108699285Y-70108285D01*
X108985000Y-70036857D01*
X109342142Y-70036857D01*
X109627857Y-70108285D01*
X109770714Y-70179714D01*
X109842142Y-70251142D01*
X109913571Y-70394000D01*
X109913571Y-70536857D01*
X109842142Y-70679714D01*
X109770714Y-70751142D01*
X109627857Y-70822571D01*
X109342142Y-70894000D01*
X108985000Y-70894000D01*
X108699285Y-70822571D01*
X108556428Y-70751142D01*
X108485000Y-70679714D01*
X108413571Y-70536857D01*
X108556428Y-69465428D02*
X108485000Y-69394000D01*
X108413571Y-69251142D01*
X108413571Y-68894000D01*
X108485000Y-68751142D01*
X108556428Y-68679714D01*
X108699285Y-68608285D01*
X108842142Y-68608285D01*
X109056428Y-68679714D01*
X109913571Y-69536857D01*
X109913571Y-68608285D01*
X108413571Y-67679714D02*
X108413571Y-67536857D01*
X108485000Y-67394000D01*
X108556428Y-67322571D01*
X108699285Y-67251142D01*
X108985000Y-67179714D01*
X109342142Y-67179714D01*
X109627857Y-67251142D01*
X109770714Y-67322571D01*
X109842142Y-67394000D01*
X109913571Y-67536857D01*
X109913571Y-67679714D01*
X109842142Y-67822571D01*
X109770714Y-67894000D01*
X109627857Y-67965428D01*
X109342142Y-68036857D01*
X108985000Y-68036857D01*
X108699285Y-67965428D01*
X108556428Y-67894000D01*
X108485000Y-67822571D01*
X108413571Y-67679714D01*
D11*
X129969047Y-88098380D02*
X130302380Y-89098380D01*
X130635714Y-88098380D01*
X131540476Y-89003142D02*
X131492857Y-89050761D01*
X131350000Y-89098380D01*
X131254761Y-89098380D01*
X131111904Y-89050761D01*
X131016666Y-88955523D01*
X130969047Y-88860285D01*
X130921428Y-88669809D01*
X130921428Y-88526952D01*
X130969047Y-88336476D01*
X131016666Y-88241238D01*
X131111904Y-88146000D01*
X131254761Y-88098380D01*
X131350000Y-88098380D01*
X131492857Y-88146000D01*
X131540476Y-88193619D01*
X132540476Y-89003142D02*
X132492857Y-89050761D01*
X132350000Y-89098380D01*
X132254761Y-89098380D01*
X132111904Y-89050761D01*
X132016666Y-88955523D01*
X131969047Y-88860285D01*
X131921428Y-88669809D01*
X131921428Y-88526952D01*
X131969047Y-88336476D01*
X132016666Y-88241238D01*
X132111904Y-88146000D01*
X132254761Y-88098380D01*
X132350000Y-88098380D01*
X132492857Y-88146000D01*
X132540476Y-88193619D01*
X133683333Y-88050761D02*
X132826190Y-89336476D01*
X134540476Y-88146000D02*
X134445238Y-88098380D01*
X134302380Y-88098380D01*
X134159523Y-88146000D01*
X134064285Y-88241238D01*
X134016666Y-88336476D01*
X133969047Y-88526952D01*
X133969047Y-88669809D01*
X134016666Y-88860285D01*
X134064285Y-88955523D01*
X134159523Y-89050761D01*
X134302380Y-89098380D01*
X134397619Y-89098380D01*
X134540476Y-89050761D01*
X134588095Y-89003142D01*
X134588095Y-88669809D01*
X134397619Y-88669809D01*
X135016666Y-89098380D02*
X135016666Y-88098380D01*
X135588095Y-89098380D01*
X135588095Y-88098380D01*
X136064285Y-89098380D02*
X136064285Y-88098380D01*
X136302380Y-88098380D01*
X136445238Y-88146000D01*
X136540476Y-88241238D01*
X136588095Y-88336476D01*
X136635714Y-88526952D01*
X136635714Y-88669809D01*
X136588095Y-88860285D01*
X136540476Y-88955523D01*
X136445238Y-89050761D01*
X136302380Y-89098380D01*
X136064285Y-89098380D01*
X119023238Y-89098380D02*
X119023238Y-88098380D01*
X119261333Y-88098380D01*
X119404190Y-88146000D01*
X119499428Y-88241238D01*
X119547047Y-88336476D01*
X119594666Y-88526952D01*
X119594666Y-88669809D01*
X119547047Y-88860285D01*
X119499428Y-88955523D01*
X119404190Y-89050761D01*
X119261333Y-89098380D01*
X119023238Y-89098380D01*
X120023238Y-89098380D02*
X120023238Y-88431714D01*
X120023238Y-88098380D02*
X119975619Y-88146000D01*
X120023238Y-88193619D01*
X120070857Y-88146000D01*
X120023238Y-88098380D01*
X120023238Y-88193619D01*
X120451809Y-89050761D02*
X120547047Y-89098380D01*
X120737523Y-89098380D01*
X120832761Y-89050761D01*
X120880380Y-88955523D01*
X120880380Y-88907904D01*
X120832761Y-88812666D01*
X120737523Y-88765047D01*
X120594666Y-88765047D01*
X120499428Y-88717428D01*
X120451809Y-88622190D01*
X120451809Y-88574571D01*
X120499428Y-88479333D01*
X120594666Y-88431714D01*
X120737523Y-88431714D01*
X120832761Y-88479333D01*
X122023238Y-88050761D02*
X121166095Y-89336476D01*
X122308952Y-89050761D02*
X122404190Y-89098380D01*
X122594666Y-89098380D01*
X122689904Y-89050761D01*
X122737523Y-88955523D01*
X122737523Y-88907904D01*
X122689904Y-88812666D01*
X122594666Y-88765047D01*
X122451809Y-88765047D01*
X122356571Y-88717428D01*
X122308952Y-88622190D01*
X122308952Y-88574571D01*
X122356571Y-88479333D01*
X122451809Y-88431714D01*
X122594666Y-88431714D01*
X122689904Y-88479333D01*
X123308952Y-89098380D02*
X123213714Y-89050761D01*
X123166095Y-88955523D01*
X123166095Y-88098380D01*
X124070857Y-89050761D02*
X123975619Y-89098380D01*
X123785142Y-89098380D01*
X123689904Y-89050761D01*
X123642285Y-88955523D01*
X123642285Y-88574571D01*
X123689904Y-88479333D01*
X123785142Y-88431714D01*
X123975619Y-88431714D01*
X124070857Y-88479333D01*
X124118476Y-88574571D01*
X124118476Y-88669809D01*
X123642285Y-88765047D01*
X124928000Y-89050761D02*
X124832761Y-89098380D01*
X124642285Y-89098380D01*
X124547047Y-89050761D01*
X124499428Y-88955523D01*
X124499428Y-88574571D01*
X124547047Y-88479333D01*
X124642285Y-88431714D01*
X124832761Y-88431714D01*
X124928000Y-88479333D01*
X124975619Y-88574571D01*
X124975619Y-88669809D01*
X124499428Y-88765047D01*
X125404190Y-88431714D02*
X125404190Y-89431714D01*
X125404190Y-88479333D02*
X125499428Y-88431714D01*
X125689904Y-88431714D01*
X125785142Y-88479333D01*
X125832761Y-88526952D01*
X125880380Y-88622190D01*
X125880380Y-88907904D01*
X125832761Y-89003142D01*
X125785142Y-89050761D01*
X125689904Y-89098380D01*
X125499428Y-89098380D01*
X125404190Y-89050761D01*
X99807142Y-88098380D02*
X100426190Y-88098380D01*
X100092857Y-88479333D01*
X100235714Y-88479333D01*
X100330952Y-88526952D01*
X100378571Y-88574571D01*
X100426190Y-88669809D01*
X100426190Y-88907904D01*
X100378571Y-89003142D01*
X100330952Y-89050761D01*
X100235714Y-89098380D01*
X99950000Y-89098380D01*
X99854761Y-89050761D01*
X99807142Y-89003142D01*
X100711904Y-88098380D02*
X101045238Y-89098380D01*
X101378571Y-88098380D01*
X102426190Y-88050761D02*
X101569047Y-89336476D01*
X103283333Y-88146000D02*
X103188095Y-88098380D01*
X103045238Y-88098380D01*
X102902380Y-88146000D01*
X102807142Y-88241238D01*
X102759523Y-88336476D01*
X102711904Y-88526952D01*
X102711904Y-88669809D01*
X102759523Y-88860285D01*
X102807142Y-88955523D01*
X102902380Y-89050761D01*
X103045238Y-89098380D01*
X103140476Y-89098380D01*
X103283333Y-89050761D01*
X103330952Y-89003142D01*
X103330952Y-88669809D01*
X103140476Y-88669809D01*
X103759523Y-89098380D02*
X103759523Y-88098380D01*
X104330952Y-89098380D01*
X104330952Y-88098380D01*
X104807142Y-89098380D02*
X104807142Y-88098380D01*
X105045238Y-88098380D01*
X105188095Y-88146000D01*
X105283333Y-88241238D01*
X105330952Y-88336476D01*
X105378571Y-88526952D01*
X105378571Y-88669809D01*
X105330952Y-88860285D01*
X105283333Y-88955523D01*
X105188095Y-89050761D01*
X105045238Y-89098380D01*
X104807142Y-89098380D01*
X106521428Y-88050761D02*
X105664285Y-89336476D01*
X106711904Y-88098380D02*
X107283333Y-88098380D01*
X106997619Y-89098380D02*
X106997619Y-88098380D01*
X107521428Y-88098380D02*
X108188095Y-89098380D01*
X108188095Y-88098380D02*
X107521428Y-89098380D01*
X109283333Y-88050761D02*
X108426190Y-89336476D01*
X110188095Y-89098380D02*
X109854761Y-88622190D01*
X109616666Y-89098380D02*
X109616666Y-88098380D01*
X109997619Y-88098380D01*
X110092857Y-88146000D01*
X110140476Y-88193619D01*
X110188095Y-88288857D01*
X110188095Y-88431714D01*
X110140476Y-88526952D01*
X110092857Y-88574571D01*
X109997619Y-88622190D01*
X109616666Y-88622190D01*
X110521428Y-88098380D02*
X111188095Y-89098380D01*
X111188095Y-88098380D02*
X110521428Y-89098380D01*
X112283333Y-88050761D02*
X111426190Y-89336476D01*
X112950000Y-88574571D02*
X113092857Y-88622190D01*
X113140476Y-88669809D01*
X113188095Y-88765047D01*
X113188095Y-88907904D01*
X113140476Y-89003142D01*
X113092857Y-89050761D01*
X112997619Y-89098380D01*
X112616666Y-89098380D01*
X112616666Y-88098380D01*
X112950000Y-88098380D01*
X113045238Y-88146000D01*
X113092857Y-88193619D01*
X113140476Y-88288857D01*
X113140476Y-88384095D01*
X113092857Y-88479333D01*
X113045238Y-88526952D01*
X112950000Y-88574571D01*
X112616666Y-88574571D01*
X113807142Y-88098380D02*
X113997619Y-88098380D01*
X114092857Y-88146000D01*
X114188095Y-88241238D01*
X114235714Y-88431714D01*
X114235714Y-88765047D01*
X114188095Y-88955523D01*
X114092857Y-89050761D01*
X113997619Y-89098380D01*
X113807142Y-89098380D01*
X113711904Y-89050761D01*
X113616666Y-88955523D01*
X113569047Y-88765047D01*
X113569047Y-88431714D01*
X113616666Y-88241238D01*
X113711904Y-88146000D01*
X113807142Y-88098380D01*
X114854761Y-88098380D02*
X115045238Y-88098380D01*
X115140476Y-88146000D01*
X115235714Y-88241238D01*
X115283333Y-88431714D01*
X115283333Y-88765047D01*
X115235714Y-88955523D01*
X115140476Y-89050761D01*
X115045238Y-89098380D01*
X114854761Y-89098380D01*
X114759523Y-89050761D01*
X114664285Y-88955523D01*
X114616666Y-88765047D01*
X114616666Y-88431714D01*
X114664285Y-88241238D01*
X114759523Y-88146000D01*
X114854761Y-88098380D01*
X115569047Y-88098380D02*
X116140476Y-88098380D01*
X115854761Y-89098380D02*
X115854761Y-88098380D01*
D12*
X124748000Y-57500000D02*
X112500000Y-57500000D01*
X124748000Y-82083000D02*
X124748000Y-57500000D01*
X112488000Y-82083000D02*
X112500000Y-57500000D01*
%TO.C,U2*%
X112208000Y-88123000D02*
X112208000Y-86513000D01*
X112208000Y-88123000D02*
X114208000Y-88123000D01*
X124748000Y-87843000D02*
X112498000Y-87843000D01*
X124748000Y-82083000D02*
X124748000Y-87843000D01*
X112488000Y-82083000D02*
X124748000Y-82083000D01*
X112488000Y-87833000D02*
X112488000Y-82093000D01*
%TO.C,U1*%
X140855000Y-88827000D02*
X96635000Y-88827000D01*
X96635000Y-57277000D02*
X96635000Y-88827000D01*
X140855000Y-57277000D02*
X140855000Y-88827000D01*
X96635000Y-57277000D02*
X140855000Y-57277000D01*
%TO.C,J3*%
X116920000Y-92080000D02*
X116920000Y-90750000D01*
X118250000Y-92080000D02*
X116920000Y-92080000D01*
X119520000Y-92080000D02*
X119520000Y-89420000D01*
X119520000Y-89420000D02*
X127200000Y-89420000D01*
X119520000Y-92080000D02*
X127200000Y-92080000D01*
X127200000Y-92080000D02*
X127200000Y-89420000D01*
%TO.C,J2*%
X130670000Y-92080000D02*
X130670000Y-90750000D01*
X132000000Y-92080000D02*
X130670000Y-92080000D01*
X133270000Y-92080000D02*
X133270000Y-89420000D01*
X133270000Y-89420000D02*
X135870000Y-89420000D01*
X133270000Y-92080000D02*
X135870000Y-92080000D01*
X135870000Y-92080000D02*
X135870000Y-89420000D01*
%TO.C,J1*%
X99920000Y-92080000D02*
X99920000Y-90750000D01*
X101250000Y-92080000D02*
X99920000Y-92080000D01*
X102520000Y-92080000D02*
X102520000Y-89420000D01*
X102520000Y-89420000D02*
X115280000Y-89420000D01*
X102520000Y-92080000D02*
X115280000Y-92080000D01*
X115280000Y-92080000D02*
X115280000Y-89420000D01*
%TO.C,F1*%
X126052000Y-83703748D02*
X126052000Y-86476252D01*
X129472000Y-83703748D02*
X129472000Y-86476252D01*
%TO.C,U2*%
D11*
X110760380Y-86724904D02*
X111569904Y-86724904D01*
X111665142Y-86677285D01*
X111712761Y-86629666D01*
X111760380Y-86534428D01*
X111760380Y-86343952D01*
X111712761Y-86248714D01*
X111665142Y-86201095D01*
X111569904Y-86153476D01*
X110760380Y-86153476D01*
X110855619Y-85724904D02*
X110808000Y-85677285D01*
X110760380Y-85582047D01*
X110760380Y-85343952D01*
X110808000Y-85248714D01*
X110855619Y-85201095D01*
X110950857Y-85153476D01*
X111046095Y-85153476D01*
X111188952Y-85201095D01*
X111760380Y-85772523D01*
X111760380Y-85153476D01*
%TO.C,U1*%
X136398095Y-57967619D02*
X136445714Y-57920000D01*
X136540952Y-57872380D01*
X136779047Y-57872380D01*
X136874285Y-57920000D01*
X136921904Y-57967619D01*
X136969523Y-58062857D01*
X136969523Y-58158095D01*
X136921904Y-58300952D01*
X136350476Y-58872380D01*
X136969523Y-58872380D01*
X137826666Y-58205714D02*
X137826666Y-58872380D01*
X137588571Y-57824761D02*
X137350476Y-58539047D01*
X137969523Y-58539047D01*
X136334523Y-87472780D02*
X135763095Y-87472780D01*
X136048809Y-87472780D02*
X136048809Y-86472780D01*
X135953571Y-86615638D01*
X135858333Y-86710876D01*
X135763095Y-86758495D01*
X136667857Y-86472780D02*
X137286904Y-86472780D01*
X136953571Y-86853733D01*
X137096428Y-86853733D01*
X137191666Y-86901352D01*
X137239285Y-86948971D01*
X137286904Y-87044209D01*
X137286904Y-87282304D01*
X137239285Y-87377542D01*
X137191666Y-87425161D01*
X137096428Y-87472780D01*
X136810714Y-87472780D01*
X136715476Y-87425161D01*
X136667857Y-87377542D01*
X100774523Y-87472780D02*
X100203095Y-87472780D01*
X100488809Y-87472780D02*
X100488809Y-86472780D01*
X100393571Y-86615638D01*
X100298333Y-86710876D01*
X100203095Y-86758495D01*
X101155476Y-86568019D02*
X101203095Y-86520400D01*
X101298333Y-86472780D01*
X101536428Y-86472780D01*
X101631666Y-86520400D01*
X101679285Y-86568019D01*
X101726904Y-86663257D01*
X101726904Y-86758495D01*
X101679285Y-86901352D01*
X101107857Y-87472780D01*
X101726904Y-87472780D01*
X100615714Y-58872380D02*
X100044285Y-58872380D01*
X100330000Y-58872380D02*
X100330000Y-57872380D01*
X100234761Y-58015238D01*
X100139523Y-58110476D01*
X100044285Y-58158095D01*
%TO.C,J3*%
X115372380Y-91083333D02*
X116086666Y-91083333D01*
X116229523Y-91130952D01*
X116324761Y-91226190D01*
X116372380Y-91369047D01*
X116372380Y-91464285D01*
X115372380Y-90702380D02*
X115372380Y-90083333D01*
X115753333Y-90416666D01*
X115753333Y-90273809D01*
X115800952Y-90178571D01*
X115848571Y-90130952D01*
X115943809Y-90083333D01*
X116181904Y-90083333D01*
X116277142Y-90130952D01*
X116324761Y-90178571D01*
X116372380Y-90273809D01*
X116372380Y-90559523D01*
X116324761Y-90654761D01*
X116277142Y-90702380D01*
%TO.C,J2*%
X129122380Y-91083333D02*
X129836666Y-91083333D01*
X129979523Y-91130952D01*
X130074761Y-91226190D01*
X130122380Y-91369047D01*
X130122380Y-91464285D01*
X129217619Y-90654761D02*
X129170000Y-90607142D01*
X129122380Y-90511904D01*
X129122380Y-90273809D01*
X129170000Y-90178571D01*
X129217619Y-90130952D01*
X129312857Y-90083333D01*
X129408095Y-90083333D01*
X129550952Y-90130952D01*
X130122380Y-90702380D01*
X130122380Y-90083333D01*
%TO.C,J1*%
X98372380Y-91083333D02*
X99086666Y-91083333D01*
X99229523Y-91130952D01*
X99324761Y-91226190D01*
X99372380Y-91369047D01*
X99372380Y-91464285D01*
X99372380Y-90083333D02*
X99372380Y-90654761D01*
X99372380Y-90369047D02*
X98372380Y-90369047D01*
X98515238Y-90464285D01*
X98610476Y-90559523D01*
X98658095Y-90654761D01*
%TO.C,H4*%
X130302095Y-81732380D02*
X130302095Y-80732380D01*
X130302095Y-81208571D02*
X130873523Y-81208571D01*
X130873523Y-81732380D02*
X130873523Y-80732380D01*
X131778285Y-81065714D02*
X131778285Y-81732380D01*
X131540190Y-80684761D02*
X131302095Y-81399047D01*
X131921142Y-81399047D01*
%TO.C,H3*%
X128143095Y-59507380D02*
X128143095Y-58507380D01*
X128143095Y-58983571D02*
X128714523Y-58983571D01*
X128714523Y-59507380D02*
X128714523Y-58507380D01*
X129095476Y-58507380D02*
X129714523Y-58507380D01*
X129381190Y-58888333D01*
X129524047Y-58888333D01*
X129619285Y-58935952D01*
X129666904Y-58983571D01*
X129714523Y-59078809D01*
X129714523Y-59316904D01*
X129666904Y-59412142D01*
X129619285Y-59459761D01*
X129524047Y-59507380D01*
X129238333Y-59507380D01*
X129143095Y-59459761D01*
X129095476Y-59412142D01*
%TO.C,H2*%
X105918095Y-81097380D02*
X105918095Y-80097380D01*
X105918095Y-80573571D02*
X106489523Y-80573571D01*
X106489523Y-81097380D02*
X106489523Y-80097380D01*
X106918095Y-80192619D02*
X106965714Y-80145000D01*
X107060952Y-80097380D01*
X107299047Y-80097380D01*
X107394285Y-80145000D01*
X107441904Y-80192619D01*
X107489523Y-80287857D01*
X107489523Y-80383095D01*
X107441904Y-80525952D01*
X106870476Y-81097380D01*
X107489523Y-81097380D01*
%TO.C,H1*%
X108458095Y-59507380D02*
X108458095Y-58507380D01*
X108458095Y-58983571D02*
X109029523Y-58983571D01*
X109029523Y-59507380D02*
X109029523Y-58507380D01*
X110029523Y-59507380D02*
X109458095Y-59507380D01*
X109743809Y-59507380D02*
X109743809Y-58507380D01*
X109648571Y-58650238D01*
X109553333Y-58745476D01*
X109458095Y-58793095D01*
%TO.C,F1*%
X127817571Y-80978333D02*
X127817571Y-81311666D01*
X128341380Y-81311666D02*
X127341380Y-81311666D01*
X127341380Y-80835476D01*
X128341380Y-79930714D02*
X128341380Y-80502142D01*
X128341380Y-80216428D02*
X127341380Y-80216428D01*
X127484238Y-80311666D01*
X127579476Y-80406904D01*
X127627095Y-80502142D01*
%TD*%
M02*
