M48
; DRILL file {KiCad 5.1.8} date Tue Dec  8 01:30:11 2020
; FORMAT={-:-/ absolute / inch / decimal}
; #@! TF.CreationDate,2020-12-08T01:30:11+01:00
; #@! TF.GenerationSoftware,Kicad,Pcbnew,5.1.8
; #@! TF.FileFunction,Plated,1,2,PTH
FMAT,2
INCH
T1C0.0157
T2C0.0315
T3C0.0394
%
G90
G05
T1
X4.725Y-3.125
X4.9Y-3.1
X5.1Y-3.15
X5.125Y-2.625
X5.3Y-3.1
X5.35Y-3.175
T2
X4.52Y-3.345
X4.62Y-3.345
X4.72Y-3.345
X4.82Y-3.345
T3
X5.1969Y-3.5728
X5.2969Y-3.5728
X3.9862Y-3.5728
X4.0862Y-3.5728
X4.1862Y-3.5728
X4.2862Y-3.5728
X4.3862Y-3.5728
X4.4862Y-3.5728
X3.875Y-2.33
X3.875Y-2.43
X3.875Y-2.53
X3.875Y-2.63
X3.875Y-2.73
X3.875Y-2.83
X3.875Y-2.93
X3.875Y-3.03
X3.875Y-3.13
X3.875Y-3.23
X3.875Y-3.33
X3.875Y-3.43
X5.475Y-2.33
X5.475Y-2.43
X5.475Y-2.53
X5.475Y-2.63
X5.475Y-2.73
X5.475Y-2.83
X5.475Y-2.93
X5.475Y-3.03
X5.475Y-3.13
X5.475Y-3.23
X5.475Y-3.33
X5.475Y-3.43
X4.6555Y-3.5728
X4.7555Y-3.5728
X4.8555Y-3.5728
X4.9555Y-3.5728
T0
M30
