%TF.GenerationSoftware,KiCad,Pcbnew,5.1.8*%
%TF.CreationDate,2020-12-08T01:30:07+01:00*%
%TF.ProjectId,dht_esp_shield,6468745f-6573-4705-9f73-6869656c642e,rev?*%
%TF.SameCoordinates,Original*%
%TF.FileFunction,Copper,L2,Bot*%
%TF.FilePolarity,Positive*%
%FSLAX46Y46*%
G04 Gerber Fmt 4.6, Leading zero omitted, Abs format (unit mm)*
G04 Created by KiCad (PCBNEW 5.1.8) date 2020-12-08 01:30:07*
%MOMM*%
%LPD*%
G01*
G04 APERTURE LIST*
%TA.AperFunction,ComponentPad*%
%ADD10C,1.500000*%
%TD*%
%TA.AperFunction,ComponentPad*%
%ADD11R,1.500000X1.500000*%
%TD*%
%TA.AperFunction,ComponentPad*%
%ADD12C,1.700000*%
%TD*%
%TA.AperFunction,ComponentPad*%
%ADD13R,1.700000X1.700000*%
%TD*%
%TA.AperFunction,ComponentPad*%
%ADD14O,1.700000X1.700000*%
%TD*%
%TA.AperFunction,ViaPad*%
%ADD15C,0.800000*%
%TD*%
%TA.AperFunction,Conductor*%
%ADD16C,0.500000*%
%TD*%
G04 APERTURE END LIST*
D10*
%TO.P,U2,4*%
%TO.N,Net-(C1-Pad1)*%
X122428000Y-84963000D03*
%TO.P,U2,3*%
%TO.N,Net-(U2-Pad3)*%
X119888000Y-84963000D03*
%TO.P,U2,2*%
%TO.N,Net-(R5-Pad2)*%
X117348000Y-84963000D03*
D11*
%TO.P,U2,1*%
%TO.N,Net-(C1-Pad2)*%
X114808000Y-84963000D03*
%TD*%
D12*
%TO.P,U1,13*%
%TO.N,Net-(U1-Pad13)*%
X139065000Y-87122000D03*
%TO.P,U1,14*%
%TO.N,Net-(U1-Pad14)*%
X139065000Y-84582000D03*
%TO.P,U1,15*%
%TO.N,Net-(U1-Pad15)*%
X139065000Y-82042000D03*
%TO.P,U1,16*%
%TO.N,Net-(C1-Pad2)*%
X139065000Y-79502000D03*
%TO.P,U1,17*%
%TO.N,Net-(U1-Pad17)*%
X139065000Y-76962000D03*
%TO.P,U1,18*%
%TO.N,Net-(U1-Pad18)*%
X139065000Y-74422000D03*
%TO.P,U1,19*%
%TO.N,Net-(R5-Pad2)*%
X139065000Y-71882000D03*
%TO.P,U1,20*%
%TO.N,Net-(J3-Pad1)*%
X139065000Y-69342000D03*
%TO.P,U1,21*%
%TO.N,Net-(R3-Pad1)*%
X139065000Y-66802000D03*
%TO.P,U1,22*%
%TO.N,Net-(R2-Pad2)*%
X139065000Y-64262000D03*
%TO.P,U1,23*%
%TO.N,Net-(C1-Pad1)*%
X139065000Y-61722000D03*
%TO.P,U1,24*%
%TO.N,Net-(F1-Pad2)*%
X139065000Y-59182000D03*
%TO.P,U1,12*%
%TO.N,Net-(U1-Pad12)*%
X98425000Y-87122000D03*
%TO.P,U1,11*%
%TO.N,Net-(U1-Pad11)*%
X98425000Y-84582000D03*
%TO.P,U1,10*%
%TO.N,Net-(U1-Pad10)*%
X98425000Y-82042000D03*
%TO.P,U1,9*%
%TO.N,Net-(U1-Pad9)*%
X98425000Y-79502000D03*
%TO.P,U1,8*%
%TO.N,Net-(U1-Pad8)*%
X98425000Y-76962000D03*
%TO.P,U1,7*%
%TO.N,Net-(U1-Pad7)*%
X98425000Y-74422000D03*
%TO.P,U1,6*%
%TO.N,Net-(U1-Pad6)*%
X98425000Y-71882000D03*
%TO.P,U1,5*%
%TO.N,Net-(U1-Pad5)*%
X98425000Y-69342000D03*
%TO.P,U1,4*%
%TO.N,Net-(J1-Pad4)*%
X98425000Y-66802000D03*
%TO.P,U1,3*%
%TO.N,Net-(J1-Pad3)*%
X98425000Y-64262000D03*
%TO.P,U1,2*%
%TO.N,Net-(C1-Pad1)*%
X98425000Y-61722000D03*
D13*
%TO.P,U1,1*%
%TO.N,Net-(J1-Pad6)*%
X98425000Y-59182000D03*
%TD*%
%TO.P,R5,2*%
%TO.N,Net-(R5-Pad2)*%
%TA.AperFunction,SMDPad,CuDef*%
G36*
G01*
X116897999Y-81934000D02*
X117798001Y-81934000D01*
G75*
G02*
X118048000Y-82183999I0J-249999D01*
G01*
X118048000Y-82884001D01*
G75*
G02*
X117798001Y-83134000I-249999J0D01*
G01*
X116897999Y-83134000D01*
G75*
G02*
X116648000Y-82884001I0J249999D01*
G01*
X116648000Y-82183999D01*
G75*
G02*
X116897999Y-81934000I249999J0D01*
G01*
G37*
%TD.AperFunction*%
%TO.P,R5,1*%
%TO.N,Net-(C1-Pad2)*%
%TA.AperFunction,SMDPad,CuDef*%
G36*
G01*
X116897999Y-79934000D02*
X117798001Y-79934000D01*
G75*
G02*
X118048000Y-80183999I0J-249999D01*
G01*
X118048000Y-80884001D01*
G75*
G02*
X117798001Y-81134000I-249999J0D01*
G01*
X116897999Y-81134000D01*
G75*
G02*
X116648000Y-80884001I0J249999D01*
G01*
X116648000Y-80183999D01*
G75*
G02*
X116897999Y-79934000I249999J0D01*
G01*
G37*
%TD.AperFunction*%
%TD*%
%TO.P,R4,2*%
%TO.N,Net-(F1-Pad1)*%
%TA.AperFunction,SMDPad,CuDef*%
G36*
G01*
X133750000Y-74237001D02*
X133750000Y-73336999D01*
G75*
G02*
X133999999Y-73087000I249999J0D01*
G01*
X134700001Y-73087000D01*
G75*
G02*
X134950000Y-73336999I0J-249999D01*
G01*
X134950000Y-74237001D01*
G75*
G02*
X134700001Y-74487000I-249999J0D01*
G01*
X133999999Y-74487000D01*
G75*
G02*
X133750000Y-74237001I0J249999D01*
G01*
G37*
%TD.AperFunction*%
%TO.P,R4,1*%
%TO.N,Net-(R3-Pad1)*%
%TA.AperFunction,SMDPad,CuDef*%
G36*
G01*
X131750000Y-74237001D02*
X131750000Y-73336999D01*
G75*
G02*
X131999999Y-73087000I249999J0D01*
G01*
X132700001Y-73087000D01*
G75*
G02*
X132950000Y-73336999I0J-249999D01*
G01*
X132950000Y-74237001D01*
G75*
G02*
X132700001Y-74487000I-249999J0D01*
G01*
X131999999Y-74487000D01*
G75*
G02*
X131750000Y-74237001I0J249999D01*
G01*
G37*
%TD.AperFunction*%
%TD*%
%TO.P,R3,2*%
%TO.N,Net-(C1-Pad1)*%
%TA.AperFunction,SMDPad,CuDef*%
G36*
G01*
X133750000Y-70935001D02*
X133750000Y-70034999D01*
G75*
G02*
X133999999Y-69785000I249999J0D01*
G01*
X134700001Y-69785000D01*
G75*
G02*
X134950000Y-70034999I0J-249999D01*
G01*
X134950000Y-70935001D01*
G75*
G02*
X134700001Y-71185000I-249999J0D01*
G01*
X133999999Y-71185000D01*
G75*
G02*
X133750000Y-70935001I0J249999D01*
G01*
G37*
%TD.AperFunction*%
%TO.P,R3,1*%
%TO.N,Net-(R3-Pad1)*%
%TA.AperFunction,SMDPad,CuDef*%
G36*
G01*
X131750000Y-70935001D02*
X131750000Y-70034999D01*
G75*
G02*
X131999999Y-69785000I249999J0D01*
G01*
X132700001Y-69785000D01*
G75*
G02*
X132950000Y-70034999I0J-249999D01*
G01*
X132950000Y-70935001D01*
G75*
G02*
X132700001Y-71185000I-249999J0D01*
G01*
X131999999Y-71185000D01*
G75*
G02*
X131750000Y-70935001I0J249999D01*
G01*
G37*
%TD.AperFunction*%
%TD*%
%TO.P,R2,2*%
%TO.N,Net-(R2-Pad2)*%
%TA.AperFunction,SMDPad,CuDef*%
G36*
G01*
X133750000Y-67506001D02*
X133750000Y-66605999D01*
G75*
G02*
X133999999Y-66356000I249999J0D01*
G01*
X134700001Y-66356000D01*
G75*
G02*
X134950000Y-66605999I0J-249999D01*
G01*
X134950000Y-67506001D01*
G75*
G02*
X134700001Y-67756000I-249999J0D01*
G01*
X133999999Y-67756000D01*
G75*
G02*
X133750000Y-67506001I0J249999D01*
G01*
G37*
%TD.AperFunction*%
%TO.P,R2,1*%
%TO.N,Net-(J3-Pad4)*%
%TA.AperFunction,SMDPad,CuDef*%
G36*
G01*
X131750000Y-67506001D02*
X131750000Y-66605999D01*
G75*
G02*
X131999999Y-66356000I249999J0D01*
G01*
X132700001Y-66356000D01*
G75*
G02*
X132950000Y-66605999I0J-249999D01*
G01*
X132950000Y-67506001D01*
G75*
G02*
X132700001Y-67756000I-249999J0D01*
G01*
X131999999Y-67756000D01*
G75*
G02*
X131750000Y-67506001I0J249999D01*
G01*
G37*
%TD.AperFunction*%
%TD*%
%TO.P,R1,2*%
%TO.N,Net-(J3-Pad2)*%
%TA.AperFunction,SMDPad,CuDef*%
G36*
G01*
X120796000Y-88334001D02*
X120796000Y-87433999D01*
G75*
G02*
X121045999Y-87184000I249999J0D01*
G01*
X121746001Y-87184000D01*
G75*
G02*
X121996000Y-87433999I0J-249999D01*
G01*
X121996000Y-88334001D01*
G75*
G02*
X121746001Y-88584000I-249999J0D01*
G01*
X121045999Y-88584000D01*
G75*
G02*
X120796000Y-88334001I0J249999D01*
G01*
G37*
%TD.AperFunction*%
%TO.P,R1,1*%
%TO.N,Net-(C1-Pad1)*%
%TA.AperFunction,SMDPad,CuDef*%
G36*
G01*
X118796000Y-88334001D02*
X118796000Y-87433999D01*
G75*
G02*
X119045999Y-87184000I249999J0D01*
G01*
X119746001Y-87184000D01*
G75*
G02*
X119996000Y-87433999I0J-249999D01*
G01*
X119996000Y-88334001D01*
G75*
G02*
X119746001Y-88584000I-249999J0D01*
G01*
X119045999Y-88584000D01*
G75*
G02*
X118796000Y-88334001I0J249999D01*
G01*
G37*
%TD.AperFunction*%
%TD*%
D14*
%TO.P,J3,4*%
%TO.N,Net-(J3-Pad4)*%
X125870000Y-90750000D03*
%TO.P,J3,3*%
%TO.N,Net-(J3-Pad1)*%
X123330000Y-90750000D03*
%TO.P,J3,2*%
%TO.N,Net-(J3-Pad2)*%
X120790000Y-90750000D03*
D13*
%TO.P,J3,1*%
%TO.N,Net-(J3-Pad1)*%
X118250000Y-90750000D03*
%TD*%
D14*
%TO.P,J2,2*%
%TO.N,Net-(C1-Pad1)*%
X134540000Y-90750000D03*
D13*
%TO.P,J2,1*%
%TO.N,Net-(F1-Pad2)*%
X132000000Y-90750000D03*
%TD*%
D14*
%TO.P,J1,6*%
%TO.N,Net-(J1-Pad6)*%
X113950000Y-90750000D03*
%TO.P,J1,5*%
%TO.N,Net-(C1-Pad1)*%
X111410000Y-90750000D03*
%TO.P,J1,4*%
%TO.N,Net-(J1-Pad4)*%
X108870000Y-90750000D03*
%TO.P,J1,3*%
%TO.N,Net-(J1-Pad3)*%
X106330000Y-90750000D03*
%TO.P,J1,2*%
%TO.N,Net-(C1-Pad1)*%
X103790000Y-90750000D03*
D13*
%TO.P,J1,1*%
%TO.N,Net-(C1-Pad2)*%
X101250000Y-90750000D03*
%TD*%
%TO.P,C1,2*%
%TO.N,Net-(C1-Pad2)*%
%TA.AperFunction,SMDPad,CuDef*%
G36*
G01*
X114570500Y-81859000D02*
X115045500Y-81859000D01*
G75*
G02*
X115283000Y-82096500I0J-237500D01*
G01*
X115283000Y-82696500D01*
G75*
G02*
X115045500Y-82934000I-237500J0D01*
G01*
X114570500Y-82934000D01*
G75*
G02*
X114333000Y-82696500I0J237500D01*
G01*
X114333000Y-82096500D01*
G75*
G02*
X114570500Y-81859000I237500J0D01*
G01*
G37*
%TD.AperFunction*%
%TO.P,C1,1*%
%TO.N,Net-(C1-Pad1)*%
%TA.AperFunction,SMDPad,CuDef*%
G36*
G01*
X114570500Y-80134000D02*
X115045500Y-80134000D01*
G75*
G02*
X115283000Y-80371500I0J-237500D01*
G01*
X115283000Y-80971500D01*
G75*
G02*
X115045500Y-81209000I-237500J0D01*
G01*
X114570500Y-81209000D01*
G75*
G02*
X114333000Y-80971500I0J237500D01*
G01*
X114333000Y-80371500D01*
G75*
G02*
X114570500Y-80134000I237500J0D01*
G01*
G37*
%TD.AperFunction*%
%TD*%
D15*
%TO.N,Net-(C1-Pad2)*%
X135890000Y-80645000D03*
X120015000Y-79375000D03*
%TO.N,Net-(F1-Pad1)*%
X129540000Y-80010000D03*
%TO.N,Net-(J3-Pad4)*%
X130175000Y-66675000D03*
%TO.N,Net-(R5-Pad2)*%
X124460000Y-78740000D03*
X134620000Y-78740000D03*
%TD*%
D16*
%TO.N,Net-(C1-Pad2)*%
X139065000Y-79502000D02*
X137033000Y-79502000D01*
X137033000Y-79502000D02*
X135890000Y-80645000D01*
X135890000Y-80645000D02*
X135890000Y-80645000D01*
X118856000Y-80534000D02*
X120015000Y-79375000D01*
X117348000Y-80534000D02*
X118856000Y-80534000D01*
X115485500Y-82396500D02*
X117348000Y-80534000D01*
X114808000Y-82396500D02*
X115485500Y-82396500D01*
X114808000Y-82396500D02*
X114808000Y-84963000D01*
X114808000Y-84963000D02*
X109728000Y-84963000D01*
X109728000Y-84963000D02*
X106680000Y-81915000D01*
X106680000Y-81915000D02*
X101600000Y-81915000D01*
X101600000Y-81915000D02*
X100330000Y-83185000D01*
X100330000Y-89830000D02*
X101250000Y-90750000D01*
X100330000Y-83185000D02*
X100330000Y-89830000D01*
%TO.N,Net-(C1-Pad1)*%
X134350000Y-70485000D02*
X134350000Y-68945000D01*
X134350000Y-68945000D02*
X133985000Y-68580000D01*
X133985000Y-68580000D02*
X129540000Y-68580000D01*
X129540000Y-68580000D02*
X128905000Y-67945000D01*
X128905000Y-67945000D02*
X128905000Y-64770000D01*
X128905000Y-64770000D02*
X129540000Y-64135000D01*
X137668000Y-61722000D02*
X139065000Y-61722000D01*
X135255000Y-64135000D02*
X137668000Y-61722000D01*
X134540000Y-90750000D02*
X137850000Y-90750000D01*
X140365001Y-63022001D02*
X139065000Y-61722000D01*
X140365001Y-88234999D02*
X140365001Y-63022001D01*
X137850000Y-90750000D02*
X140365001Y-88234999D01*
X122428000Y-84963000D02*
X126365000Y-81026000D01*
X126365000Y-70485000D02*
X128905000Y-67945000D01*
X119396000Y-87884000D02*
X119396000Y-87614000D01*
X119396000Y-87614000D02*
X120650000Y-86360000D01*
X120650000Y-86360000D02*
X121920000Y-86360000D01*
X122428000Y-85852000D02*
X121920000Y-86360000D01*
X122428000Y-84963000D02*
X122428000Y-85852000D01*
X103790000Y-90750000D02*
X103790000Y-89250000D01*
X103790000Y-89250000D02*
X104775000Y-88265000D01*
X104775000Y-88265000D02*
X110490000Y-88265000D01*
X111410000Y-89185000D02*
X111410000Y-90750000D01*
X110490000Y-88265000D02*
X111410000Y-89185000D01*
X119015000Y-88265000D02*
X119396000Y-87884000D01*
X110490000Y-88265000D02*
X119015000Y-88265000D01*
X98425000Y-61722000D02*
X100838000Y-64135000D01*
X131445000Y-64135000D02*
X135255000Y-64135000D01*
X129540000Y-64135000D02*
X131445000Y-64135000D01*
X114808000Y-64262000D02*
X114935000Y-64135000D01*
X114808000Y-80671500D02*
X114808000Y-64262000D01*
X114935000Y-64135000D02*
X131445000Y-64135000D01*
X100838000Y-64135000D02*
X114935000Y-64135000D01*
X114808000Y-80671500D02*
X114808000Y-78232000D01*
X115570000Y-77470000D02*
X126365000Y-77470000D01*
X114808000Y-78232000D02*
X115570000Y-77470000D01*
X126365000Y-77470000D02*
X126365000Y-70485000D01*
X126365000Y-81026000D02*
X126365000Y-77470000D01*
%TO.N,Net-(F1-Pad1)*%
X134350000Y-73787000D02*
X134350000Y-74565000D01*
X134350000Y-74565000D02*
X132715000Y-76200000D01*
X132715000Y-76200000D02*
X130175000Y-76200000D01*
X129540000Y-76835000D02*
X129540000Y-80010000D01*
X130175000Y-76200000D02*
X129540000Y-76835000D01*
%TO.N,Net-(J3-Pad4)*%
X131969000Y-66675000D02*
X132350000Y-67056000D01*
X130175000Y-66675000D02*
X131969000Y-66675000D01*
%TO.N,Net-(J3-Pad1)*%
X139065000Y-69342000D02*
X138303000Y-69342000D01*
X138303000Y-69342000D02*
X137160000Y-70485000D01*
X137160000Y-70485000D02*
X137160000Y-73025000D01*
X137160000Y-73025000D02*
X130810000Y-79375000D01*
X130810000Y-79375000D02*
X130810000Y-81280000D01*
X130810000Y-81280000D02*
X128905000Y-83185000D01*
X124460000Y-89620000D02*
X123330000Y-90750000D01*
X124460000Y-85090000D02*
X126365000Y-83185000D01*
X128905000Y-83185000D02*
X126365000Y-83185000D01*
X124460000Y-85090000D02*
X124460000Y-89620000D01*
%TO.N,Net-(J3-Pad2)*%
X120790000Y-88490000D02*
X121396000Y-87884000D01*
X120790000Y-90750000D02*
X120790000Y-88490000D01*
%TO.N,Net-(R2-Pad2)*%
X136271000Y-67056000D02*
X139065000Y-64262000D01*
X134350000Y-67056000D02*
X136271000Y-67056000D01*
%TO.N,Net-(R3-Pad1)*%
X132350000Y-72025000D02*
X136255000Y-72025000D01*
X132350000Y-73787000D02*
X132350000Y-72025000D01*
X132350000Y-72025000D02*
X132350000Y-70485000D01*
X136255000Y-69612000D02*
X139065000Y-66802000D01*
X136255000Y-72025000D02*
X136255000Y-69612000D01*
%TO.N,Net-(R5-Pad2)*%
X139065000Y-72497998D02*
X134620000Y-76942998D01*
X139065000Y-71882000D02*
X139065000Y-72497998D01*
X134620000Y-76942998D02*
X134620000Y-78740000D01*
X117348000Y-82534000D02*
X117348000Y-84963000D01*
X117348000Y-82534000D02*
X120666000Y-82534000D01*
X120666000Y-82534000D02*
X124460000Y-78740000D01*
X124460000Y-78740000D02*
X124460000Y-78740000D01*
X134620000Y-78740000D02*
X134620000Y-78740000D01*
%TD*%
M02*
