%TF.GenerationSoftware,KiCad,Pcbnew,5.1.8*%
%TF.CreationDate,2020-12-08T01:30:07+01:00*%
%TF.ProjectId,dht_esp_shield,6468745f-6573-4705-9f73-6869656c642e,rev?*%
%TF.SameCoordinates,Original*%
%TF.FileFunction,Legend,Bot*%
%TF.FilePolarity,Positive*%
%FSLAX46Y46*%
G04 Gerber Fmt 4.6, Leading zero omitted, Abs format (unit mm)*
G04 Created by KiCad (PCBNEW 5.1.8) date 2020-12-08 01:30:07*
%MOMM*%
%LPD*%
G01*
G04 APERTURE LIST*
%ADD10C,0.120000*%
%ADD11C,0.150000*%
G04 APERTURE END LIST*
D10*
%TO.C,R5*%
X118083000Y-81306936D02*
X118083000Y-81761064D01*
X116613000Y-81306936D02*
X116613000Y-81761064D01*
%TO.C,R4*%
X133122936Y-73052000D02*
X133577064Y-73052000D01*
X133122936Y-74522000D02*
X133577064Y-74522000D01*
%TO.C,R3*%
X133122936Y-69750000D02*
X133577064Y-69750000D01*
X133122936Y-71220000D02*
X133577064Y-71220000D01*
%TO.C,R2*%
X133122936Y-66321000D02*
X133577064Y-66321000D01*
X133122936Y-67791000D02*
X133577064Y-67791000D01*
%TO.C,R1*%
X120168936Y-87149000D02*
X120623064Y-87149000D01*
X120168936Y-88619000D02*
X120623064Y-88619000D01*
%TO.C,C1*%
X115318000Y-81387733D02*
X115318000Y-81680267D01*
X114298000Y-81387733D02*
X114298000Y-81680267D01*
%TO.C,R5*%
D11*
X119705380Y-81367333D02*
X119229190Y-81034000D01*
X119705380Y-80795904D02*
X118705380Y-80795904D01*
X118705380Y-81176857D01*
X118753000Y-81272095D01*
X118800619Y-81319714D01*
X118895857Y-81367333D01*
X119038714Y-81367333D01*
X119133952Y-81319714D01*
X119181571Y-81272095D01*
X119229190Y-81176857D01*
X119229190Y-80795904D01*
X118705380Y-82272095D02*
X118705380Y-81795904D01*
X119181571Y-81748285D01*
X119133952Y-81795904D01*
X119086333Y-81891142D01*
X119086333Y-82129238D01*
X119133952Y-82224476D01*
X119181571Y-82272095D01*
X119276809Y-82319714D01*
X119514904Y-82319714D01*
X119610142Y-82272095D01*
X119657761Y-82224476D01*
X119705380Y-82129238D01*
X119705380Y-81891142D01*
X119657761Y-81795904D01*
X119610142Y-81748285D01*
%TO.C,R4*%
X133516666Y-75889380D02*
X133850000Y-75413190D01*
X134088095Y-75889380D02*
X134088095Y-74889380D01*
X133707142Y-74889380D01*
X133611904Y-74937000D01*
X133564285Y-74984619D01*
X133516666Y-75079857D01*
X133516666Y-75222714D01*
X133564285Y-75317952D01*
X133611904Y-75365571D01*
X133707142Y-75413190D01*
X134088095Y-75413190D01*
X132659523Y-75222714D02*
X132659523Y-75889380D01*
X132897619Y-74841761D02*
X133135714Y-75556047D01*
X132516666Y-75556047D01*
%TO.C,R3*%
X133516666Y-72587380D02*
X133850000Y-72111190D01*
X134088095Y-72587380D02*
X134088095Y-71587380D01*
X133707142Y-71587380D01*
X133611904Y-71635000D01*
X133564285Y-71682619D01*
X133516666Y-71777857D01*
X133516666Y-71920714D01*
X133564285Y-72015952D01*
X133611904Y-72063571D01*
X133707142Y-72111190D01*
X134088095Y-72111190D01*
X133183333Y-71587380D02*
X132564285Y-71587380D01*
X132897619Y-71968333D01*
X132754761Y-71968333D01*
X132659523Y-72015952D01*
X132611904Y-72063571D01*
X132564285Y-72158809D01*
X132564285Y-72396904D01*
X132611904Y-72492142D01*
X132659523Y-72539761D01*
X132754761Y-72587380D01*
X133040476Y-72587380D01*
X133135714Y-72539761D01*
X133183333Y-72492142D01*
%TO.C,R2*%
X133516666Y-69158380D02*
X133850000Y-68682190D01*
X134088095Y-69158380D02*
X134088095Y-68158380D01*
X133707142Y-68158380D01*
X133611904Y-68206000D01*
X133564285Y-68253619D01*
X133516666Y-68348857D01*
X133516666Y-68491714D01*
X133564285Y-68586952D01*
X133611904Y-68634571D01*
X133707142Y-68682190D01*
X134088095Y-68682190D01*
X133135714Y-68253619D02*
X133088095Y-68206000D01*
X132992857Y-68158380D01*
X132754761Y-68158380D01*
X132659523Y-68206000D01*
X132611904Y-68253619D01*
X132564285Y-68348857D01*
X132564285Y-68444095D01*
X132611904Y-68586952D01*
X133183333Y-69158380D01*
X132564285Y-69158380D01*
%TO.C,R1*%
X123356666Y-88463380D02*
X123690000Y-87987190D01*
X123928095Y-88463380D02*
X123928095Y-87463380D01*
X123547142Y-87463380D01*
X123451904Y-87511000D01*
X123404285Y-87558619D01*
X123356666Y-87653857D01*
X123356666Y-87796714D01*
X123404285Y-87891952D01*
X123451904Y-87939571D01*
X123547142Y-87987190D01*
X123928095Y-87987190D01*
X122404285Y-88463380D02*
X122975714Y-88463380D01*
X122690000Y-88463380D02*
X122690000Y-87463380D01*
X122785238Y-87606238D01*
X122880476Y-87701476D01*
X122975714Y-87749095D01*
%TO.C,C1*%
X113735142Y-81367333D02*
X113782761Y-81319714D01*
X113830380Y-81176857D01*
X113830380Y-81081619D01*
X113782761Y-80938761D01*
X113687523Y-80843523D01*
X113592285Y-80795904D01*
X113401809Y-80748285D01*
X113258952Y-80748285D01*
X113068476Y-80795904D01*
X112973238Y-80843523D01*
X112878000Y-80938761D01*
X112830380Y-81081619D01*
X112830380Y-81176857D01*
X112878000Y-81319714D01*
X112925619Y-81367333D01*
X113830380Y-82319714D02*
X113830380Y-81748285D01*
X113830380Y-82034000D02*
X112830380Y-82034000D01*
X112973238Y-81938761D01*
X113068476Y-81843523D01*
X113116095Y-81748285D01*
%TD*%
M02*
